<svg version="1.1" id="Layer_1" xmlns="http://www.w3.org/2000/svg" x="0" y="0" viewBox="0 0 512 512" style="enable-background:new 0 0 512 512" xml:space="preserve"><path style="fill:#ff6464" d="M0 167.685C0 89.7 62.854 26.483 140.387 26.483c38.429 0 73.223 15.553 98.561 40.723 9.395 9.333 24.708 9.333 34.104 0 25.337-25.17 60.131-40.723 98.56-40.723C449.146 26.483 512 89.7 512 167.685c0 145.835-187.788 278.502-241.693 313.579a26.19 26.19 0 0 1-28.614 0C187.788 446.186 0 313.52 0 167.685"/><path style="fill:#d2555a" d="M197.481 38.802c-17.453-7.849-36.734-12.319-57.094-12.319C62.854 26.483 0 89.7 0 167.685c0 145.834 187.788 278.5 241.694 313.579A26.197 26.197 0 0 0 256 485.517C64.151 223.638 132.414 77.09 197.481 38.802z"/></svg>