<svg version="1.1" id="Layer_1" xmlns="http://www.w3.org/2000/svg" x="0" y="0" viewBox="0 0 512 512" style="enable-background:new 0 0 512 512" xml:space="preserve"><path style="fill:#515262" d="M229.607 6.23c-40.533 0-78.526 9.96-105.73 19.556-2.692.95-5.436 1.4-8.15 1.4-6.924 0-13.668-2.924-18.963-7.928-5.873-5.55-13.754-8.971-22.441-8.971h-41.29C14.865 10.286 0 25.15 0 43.319v173.42c0 18.167 14.865 33.032 33.033 33.032h41.29c18.167 0 33.033-14.865 33.033-33.032 0-15.62 10.822-29.666 26.209-32.355 4.55-.796 9.024-1.135 13.378-1.135 16.947 0 32.097 5.155 42.993 8.717 8.847 2.892 19.986 3.857 30.926 3.857 21.888 0 42.988-3.86 43.393-3.86.007 0 .008.001.003.003-107.394 49.523-115.97 224.128-115.599 289.158.078 13.643 11.117 24.648 24.76 24.648h149.196c13.293 0 24.169-10.534 24.689-23.817 8.018-205.326 117.73-339.272 153.505-377.688A41.665 41.665 0 0 0 512 75.833V51.577c0-11.354-66.065-41.29-74.323-41.29-35.324 0-63.009 6.729-100.167 6.729-18.582 0-39.529-1.681-64.994-6.729-14.379-2.85-28.798-4.057-42.909-4.057z"/><path style="fill:#ff6464" d="M229.607 32.712c13.165 0 25.87 1.195 37.761 3.552 24.561 4.868 47.505 7.234 70.143 7.234 20.204 0 37.461-1.816 54.151-3.573 14.602-1.537 28.437-2.994 43.499-3.143 10.123 3.083 38.225 16.401 50.358 24.572v14.481c0 3.863-1.452 7.551-4.09 10.383-35.458 38.077-151.598 178.723-160.521 393.07H175.134c-.139-53.126 7.083-220.328 100.214-263.274 11.295-5.209 17.442-17.578 14.776-29.727-2.667-12.149-13.43-20.808-25.869-20.808-2.158 0-3.701.248-5.195.487-17.393 2.787-30.372 3.373-38.199 3.373-12.972 0-19.789-1.594-22.696-2.546l-1.095-.359c-11.756-3.851-29.521-9.671-50.127-9.671-6.09 0-12.125.515-17.937 1.532-27.891 4.874-48.134 29.452-48.134 58.443 0 3.55-2.999 6.549-6.55 6.549h-41.29c-3.55 0-6.55-2.999-6.55-6.549V43.319c0-3.55 2.999-6.55 6.55-6.55h41.29c1.996 0 3.413.943 4.25 1.735 10.346 9.779 23.541 15.165 37.153 15.165a50.85 50.85 0 0 0 16.96-2.909c23.341-8.234 59.103-18.048 96.922-18.048"/><path style="fill:#d2555a" d="M61.793 216.738V43.319c0-3.55 2.999-6.55 6.55-6.55h-35.31c-3.55 0-6.55 2.999-6.55 6.55v173.42c0 3.55 2.999 6.549 6.55 6.549h35.31c-3.551-.001-6.55-2.999-6.55-6.55zM310.658 216.013c11.295-5.209 17.4-17.569 14.776-29.727-5.668-26.26-46.275-24.286-63.917-20.807-.466.092-.811.19-1.085.291a25.757 25.757 0 0 1 3.822-.292c12.438 0 23.202 8.659 25.869 20.808 2.666 12.149-3.48 24.519-14.776 29.727-93.131 42.946-100.353 210.148-100.214 263.274h35.31c-.138-53.126 7.084-220.328 100.215-263.274z"/></svg>