<svg version="1.1" id="Layer_1" xmlns="http://www.w3.org/2000/svg" x="0" y="0" viewBox="0 0 512 512" style="enable-background:new 0 0 512 512" xml:space="preserve"><path style="fill:#a5eb78" d="M344.845 71.026c1.93.057 3.884.514 5.268 1.897 1.387 1.387 1.808 3.313 1.897 5.271 3.081 67.44-46.04 107.422-104.772 104.538-.209-.01-.417.032-.623.032a6.566 6.566 0 0 1-4.648-1.926c-1.387-1.387-1.47-3.357-1.897-5.271-11.779-52.778 32.087-106.697 104.775-104.541z"/><path style="fill:#8cd76e" d="M247.238 182.732c-.208-.029-.417.032-.623.032a6.566 6.566 0 0 1-4.648-1.926L349.971 72.834c.041.04.101.049.142.09 1.387 1.387 1.865 3.311 1.897 5.271 1.252 76.122-53.351 111.763-104.772 104.537z"/><path style="fill:#a5eb78" d="M128.469 23.035c-2.529.09-5.091.673-6.904 2.486-1.817 1.817-2.464 4.339-2.486 6.908-.909 104.524 58.264 134.682 137.312 137.005.274.008.547.042.816.042 4.255 0 8.231-3.147 8.684-8.286 6.951-82.953-45.14-141.44-137.422-138.155z"/><path style="fill:#8cd76e" d="M256.391 169.435c.274-.008.547.042.816.042 2.276 0 4.472-.9 6.092-2.524L121.718 25.372c-1.919 1.827-2.634 4.417-2.64 7.058-.223 108.179 65.347 139.022 137.313 137.005z"/><ellipse style="fill:#a07dd2" cx="256" cy="457" rx="40" ry="48"/><path style="fill:#9169c8" d="M240 449.333c0-16.843 7.244-31.635 18.182-40.201-.727-.047-1.445-.132-2.182-.132-22.091 0-40 21.49-40 48s17.909 48 40 48c8.056 0 15.54-2.883 21.818-7.8-21.07-1.367-37.818-22.242-37.818-47.867z"/><ellipse style="fill:#a07dd2" cx="296" cy="384" rx="40" ry="48"/><path style="fill:#9169c8" d="M280 376.333c0-16.843 7.244-31.635 18.182-40.201-.727-.047-1.445-.132-2.182-.132-22.091 0-40 21.49-40 48s17.909 48 40 48c8.056 0 15.54-2.883 21.818-7.799-21.07-1.368-37.818-22.243-37.818-47.868z"/><ellipse style="fill:#a07dd2" cx="216" cy="384" rx="40" ry="48"/><path style="fill:#9169c8" d="M200 376.333c0-16.843 7.244-31.635 18.182-40.201-.727-.047-1.445-.132-2.182-.132-22.091 0-40 21.49-40 48s17.909 48 40 48c8.056 0 15.54-2.883 21.818-7.799-21.07-1.368-37.818-22.243-37.818-47.868z"/><ellipse style="fill:#a07dd2" cx="256" cy="313" rx="40" ry="48"/><path style="fill:#9169c8" d="M240 305.333c0-16.843 7.244-31.635 18.182-40.201-.727-.047-1.445-.132-2.182-.132-22.091 0-40 21.49-40 48s17.909 48 40 48c8.056 0 15.54-2.883 21.818-7.799-21.07-1.368-37.818-22.243-37.818-47.868z"/><ellipse style="fill:#a07dd2" cx="336" cy="313" rx="40" ry="48"/><path style="fill:#9169c8" d="M320 305.333c0-16.843 7.244-31.635 18.182-40.201-.727-.047-1.445-.132-2.182-.132-22.091 0-40 21.49-40 48s17.909 48 40 48c8.056 0 15.54-2.883 21.818-7.799-21.07-1.368-37.818-22.243-37.818-47.868z"/><ellipse style="fill:#a07dd2" cx="176" cy="313" rx="40" ry="48"/><path style="fill:#9169c8" d="M160 305.333c0-16.843 7.244-31.635 18.182-40.201-.727-.047-1.445-.132-2.182-.132-22.091 0-40 21.49-40 48s17.909 48 40 48c8.056 0 15.54-2.883 21.818-7.799-21.07-1.368-37.818-22.243-37.818-47.868z"/><ellipse style="fill:#a07dd2" cx="296" cy="240" rx="40" ry="48"/><path style="fill:#9169c8" d="M280 232.333c0-16.843 7.244-31.635 18.182-40.201-.727-.047-1.445-.132-2.182-.132-22.091 0-40 21.49-40 48s17.909 48 40 48c8.056 0 15.54-2.883 21.818-7.799-21.07-1.368-37.818-22.243-37.818-47.868z"/><ellipse style="fill:#a07dd2" cx="376" cy="240" rx="40" ry="48"/><path style="fill:#9169c8" d="M360 232.333c0-16.843 7.244-31.635 18.182-40.201-.727-.047-1.445-.132-2.182-.132-22.091 0-40 21.49-40 48s17.909 48 40 48c8.056 0 15.54-2.883 21.818-7.799-21.07-1.368-37.818-22.243-37.818-47.868z"/><ellipse style="fill:#a07dd2" cx="136" cy="240" rx="40" ry="48"/><path style="fill:#9169c8" d="M120 232.333c0-16.843 7.244-31.635 18.182-40.201-.727-.047-1.445-.132-2.182-.132-22.091 0-40 21.49-40 48s17.909 48 40 48c8.056 0 15.54-2.883 21.818-7.799-21.07-1.368-37.818-22.243-37.818-47.868z"/><ellipse style="fill:#a07dd2" cx="216" cy="240" rx="40" ry="48"/><path style="fill:#9169c8" d="M200 232.333c0-16.843 7.244-31.635 18.182-40.201-.727-.047-1.445-.132-2.182-.132-22.091 0-40 21.49-40 48s17.909 48 40 48c8.056 0 15.54-2.883 21.818-7.799-21.07-1.368-37.818-22.243-37.818-47.868z"/><ellipse style="fill:#a07dd2" cx="256" cy="169" rx="40" ry="48"/><path style="fill:#9169c8" d="M240 161.333c0-16.843 7.244-31.635 18.182-40.201-.727-.047-1.445-.132-2.182-.132-22.091 0-40 21.49-40 48s17.909 48 40 48c8.056 0 15.54-2.883 21.818-7.799-21.07-1.368-37.818-22.243-37.818-47.868z"/><ellipse style="fill:#a07dd2" cx="336" cy="169" rx="40" ry="48"/><path style="fill:#9169c8" d="M320 161.333c0-16.843 7.244-31.635 18.182-40.201-.727-.047-1.445-.132-2.182-.132-22.091 0-40 21.49-40 48s17.909 48 40 48c8.056 0 15.54-2.883 21.818-7.799-21.07-1.368-37.818-22.243-37.818-47.868z"/><ellipse style="fill:#a07dd2" cx="176" cy="169" rx="40" ry="48"/><path style="fill:#9169c8" d="M160 161.333c0-16.843 7.244-31.635 18.182-40.201-.727-.047-1.445-.132-2.182-.132-22.091 0-40 21.49-40 48s17.909 48 40 48c8.056 0 15.54-2.883 21.818-7.799-21.07-1.368-37.818-22.243-37.818-47.868z"/><path style="fill:#2d2b29" d="M424 240c0-28.552-18.415-52.165-42.113-55.563A64.457 64.457 0 0 0 384 168c0-21.832-10.771-40.773-26.433-50.005a110.842 110.842 0 0 0 3.754-28.651c0-5.811-.541-11.846-1.652-18.451a8.001 8.001 0 0 0-6.561-6.561c-6.605-1.112-12.641-1.652-18.452-1.652-22.107 0-43.055 6.414-60.749 18.046 2.083-9.725 6.005-21.484 12.432-32.075C299.486 26.985 318.886 16 344 16a8 8 0 0 0 0-16c-30.652 0-55.321 13.953-71.339 40.35-7.72 12.721-12.114 26.069-14.429 37.047a138.218 138.218 0 0 0-41.143-40.166C195.116 23.342 169.7 16 143.588 16c-7.224 0-14.737.673-22.968 2.059a8.001 8.001 0 0 0-6.562 6.562C112.673 32.85 112 40.363 112 47.588c0 30.469 9.698 59.226 28.068 83.339C132.567 140.811 128 153.792 128 168c0 5.718.742 11.236 2.113 16.437C106.415 187.835 88 211.448 88 240c0 28.557 18.421 52.173 42.125 55.565A65.01 65.01 0 0 0 128 312c0 28.558 18.423 52.176 42.129 55.566A65.003 65.003 0 0 0 168 384.018c0 28.555 18.418 52.17 42.121 55.565A65.002 65.002 0 0 0 208 456c0 30.879 21.533 56 48 56s48-25.121 48-56c0-5.587-.736-11.121-2.121-16.417 23.702-3.395 42.121-27.01 42.121-55.565 0-5.599-.739-11.145-2.129-16.452C365.577 364.176 384 340.559 384 312c0-5.593-.738-11.133-2.125-16.435C405.58 292.173 424 268.557 424 240zm-56-72c0 22.056-14.355 40-32 40s-32-17.944-32-40 14.355-40 32-40 32 17.944 32 40zm-40 72.018c0 22.056-14.355 40-32 40s-32-17.944-32-40c0-6.127 1.14-12.144 3.292-17.598 11.917-3.366 22.109-11.926 28.708-23.511 6.599 11.585 16.792 20.145 28.708 23.511 2.152 5.455 3.292 11.471 3.292 17.598zM256 352c-17.645 0-32-17.944-32-40 0-6.112 1.135-12.113 3.277-17.558 11.923-3.363 22.121-11.925 28.723-23.516 6.602 11.59 16.8 20.152 28.723 23.515C286.865 299.887 288 305.888 288 312c0 22.056-14.355 40-32 40zm-80-224c17.645 0 32 17.944 32 40s-14.355 40-32 40-32-17.944-32-40 14.355-40 32-40zm11.292 94.42c11.917-3.366 22.109-11.926 28.708-23.511 6.599 11.585 16.792 20.145 28.708 23.511 2.152 5.455 3.292 11.471 3.292 17.598 0 22.056-14.355 40-32 40s-32-17.944-32-40c0-6.127 1.14-12.143 3.292-17.598zM256 128c17.645 0 32 17.944 32 40s-14.355 40-32 40-32-17.944-32-40 14.355-40 32-40zm88.712-48.712c.408 3.517.609 6.841.609 10.056 0 7.864-.976 15.635-2.874 23.176a41.43 41.43 0 0 0-6.448-.52c-5.926 0-11.602 1.268-16.847 3.569 1.697-3.392.789-7.613-2.353-9.969a7.999 7.999 0 0 0-11.2 1.6l-15.806 21.075c-7.31-8.465-16.938-14.197-27.658-15.801 17.854-21.376 44.066-33.795 72.52-33.795 3.216 0 6.541.2 10.057.609zM128.986 32.986c5.14-.662 9.957-.986 14.602-.986 46.385 0 88.059 25.745 108.865 67.209a112.644 112.644 0 0 0-11.801 15.744c-4.159 1.642-8.067 3.921-11.629 6.756l-47.366-47.366a8 8 0 0 0-11.313 0 7.998 7.998 0 0 0 0 11.313l47.871 47.871a56.882 56.882 0 0 0-2.214 3.564C207.394 121.983 192.68 112 176 112c-8.866 0-17.171 2.83-24.306 7.739C136.188 98.743 128 73.892 128 47.588c0-4.645.324-9.463.986-14.602zM104 240c0-22.056 14.355-40 32-40 .21 0 .417-.016.624-.031 6.61 11.048 16.54 19.192 28.092 22.454C166.863 227.872 168 233.881 168 240c0 22.056-14.355 40-32 40s-32-17.944-32-40zm40 72c0-6.119 1.137-12.128 3.285-17.578 11.917-3.364 22.11-11.921 28.71-23.504 6.602 11.594 16.802 20.16 28.728 23.524C206.865 299.887 208 305.888 208 312c0 22.056-14.355 40-32 40s-32-17.944-32-40zm40 72.018c0-6.127 1.14-12.144 3.292-17.598 11.917-3.366 22.109-11.926 28.708-23.511 6.599 11.585 16.792 20.145 28.708 23.511 2.152 5.455 3.292 11.471 3.292 17.598 0 22.056-14.355 40-32 40s-32-17.944-32-40zM256 496c-17.645 0-32-17.944-32-40 0-6.112 1.135-12.113 3.277-17.558 11.923-3.363 22.121-11.925 28.723-23.516 6.602 11.59 16.8 20.152 28.723 23.515C286.865 443.887 288 449.888 288 456c0 22.056-14.355 40-32 40zm40-71.982c-17.645 0-32-17.944-32-40 0-6.127 1.14-12.144 3.292-17.598 11.917-3.366 22.109-11.926 28.708-23.511 6.599 11.585 16.792 20.145 28.708 23.511 2.152 5.455 3.292 11.471 3.292 17.598 0 22.056-14.355 40-32 40zM336 352c-17.645 0-32-17.944-32-40 0-6.112 1.135-12.113 3.277-17.558 11.926-3.364 22.126-11.93 28.728-23.524 6.601 11.583 16.794 20.14 28.71 23.504C366.862 299.872 368 305.88 368 312c0 22.056-14.355 40-32 40zm40-72c-17.645 0-32-17.944-32-40 0-6.119 1.137-12.128 3.285-17.578 11.552-3.261 21.481-11.406 28.092-22.454.206.016.413.032.623.032 17.645 0 32 17.944 32 40s-14.355 40-32 40z"/><path style="fill:#2d2b29" d="M256 152c3.262 0 8 6.233 8 16a8 8 0 0 0 16 0c0-17.944-10.542-32-24-32a8 8 0 0 0 0 16zM336 136a8 8 0 0 0 0 16c3.262 0 8 6.233 8 16a8 8 0 0 0 16 0c0-17.944-10.542-32-24-32zM176 152c3.262 0 8 6.233 8 16a8 8 0 0 0 16 0c0-17.944-10.542-32-24-32a8 8 0 0 0 0 16zM397.659 226.34c-1.49-1.49-3.55-2.34-5.66-2.34s-4.17.85-5.66 2.34c-1.49 1.49-2.34 3.55-2.34 5.66s.85 4.17 2.34 5.66 3.55 2.34 5.66 2.34 4.17-.85 5.66-2.34a8.05 8.05 0 0 0 2.34-5.66 8.046 8.046 0 0 0-2.34-5.66zM306.339 237.66c1.49 1.49 3.55 2.34 5.66 2.34s4.17-.85 5.66-2.34c1.49-1.49 2.34-3.55 2.34-5.66s-.85-4.17-2.34-5.66-3.55-2.34-5.66-2.34-4.17.85-5.66 2.34a8.05 8.05 0 0 0-2.34 5.66 8.059 8.059 0 0 0 2.34 5.66zM232 240c2.11 0 4.17-.85 5.66-2.34 1.49-1.49 2.34-3.55 2.34-5.66s-.85-4.17-2.34-5.66c-1.49-1.49-3.55-2.34-5.66-2.34s-4.17.85-5.66 2.34c-1.49 1.49-2.34 3.55-2.34 5.66s.85 4.17 2.34 5.66A8.05 8.05 0 0 0 232 240zM232 384c2.11 0 4.17-.85 5.66-2.34S240 378.1 240 376c0-2.11-.85-4.17-2.34-5.66-1.49-1.49-3.55-2.34-5.66-2.34s-4.17.85-5.66 2.34S224 373.89 224 376c0 2.1.85 4.17 2.34 5.66A8.05 8.05 0 0 0 232 384zM317.659 370.34c-1.49-1.49-3.55-2.34-5.66-2.34s-4.17.85-5.66 2.34-2.34 3.55-2.34 5.66c0 2.1.85 4.17 2.34 5.66s3.55 2.34 5.66 2.34 4.17-.85 5.66-2.34 2.34-3.56 2.34-5.66a8.046 8.046 0 0 0-2.34-5.66zM277.659 442.34a8.05 8.05 0 0 0-5.66-2.34c-2.1 0-4.17.85-5.66 2.34s-2.34 3.55-2.34 5.66c0 2.1.85 4.17 2.34 5.66s3.55 2.34 5.66 2.34 4.17-.85 5.66-2.34 2.34-3.55 2.34-5.66a8.046 8.046 0 0 0-2.34-5.66zM357.659 298.34c-1.49-1.49-3.55-2.34-5.66-2.34s-4.17.85-5.66 2.34-2.34 3.55-2.34 5.66c0 2.11.85 4.17 2.34 5.66s3.56 2.34 5.66 2.34c2.11 0 4.17-.85 5.66-2.34s2.34-3.56 2.34-5.66a8.046 8.046 0 0 0-2.34-5.66zM280 304c0-2.1-.85-4.17-2.34-5.66S274.11 296 272 296s-4.17.85-5.66 2.34S264 301.89 264 304c0 2.11.85 4.17 2.34 5.66S269.9 312 272 312c2.11 0 4.17-.85 5.66-2.34A8.072 8.072 0 0 0 280 304zM192 312c2.11 0 4.17-.85 5.66-2.34S200 306.1 200 304s-.85-4.17-2.34-5.66c-1.49-1.49-3.55-2.34-5.66-2.34s-4.17.85-5.66 2.34S184 301.89 184 304c0 2.1.85 4.17 2.34 5.66A8.066 8.066 0 0 0 192 312zM152 240c2.11 0 4.17-.85 5.66-2.34 1.49-1.49 2.34-3.55 2.34-5.66s-.85-4.17-2.34-5.66c-1.49-1.49-3.55-2.34-5.66-2.34s-4.17.85-5.66 2.34c-1.49 1.49-2.34 3.55-2.34 5.66s.85 4.17 2.34 5.66A8.05 8.05 0 0 0 152 240z"/></svg>