<svg version="1.1" id="Layer_1" xmlns="http://www.w3.org/2000/svg" x="0" y="0" viewBox="0 0 496.158 496.158" style="enable-background:new 0 0 496.158 496.158" xml:space="preserve"><path style="fill:#e5aa17" d="M496.158 248.085C496.158 111.064 385.088.003 248.082.003 111.07.002 0 111.062 0 248.085c0 137.002 111.07 248.071 248.083 248.071 137.005-.001 248.075-111.07 248.075-248.071z"/><path style="fill:#fff" d="M223.082 121.066h-60.006c-5.523 0-10 4.479-10 10V365.09c0 5.523 4.477 10 10 10h60.006c5.523 0 10-4.477 10-10V131.066c0-5.521-4.477-10-10-10zM333.082 121.066h-60.006c-5.523 0-10 4.479-10 10V365.09c0 5.523 4.477 10 10 10h60.006c5.523 0 10-4.477 10-10V131.066c0-5.521-4.477-10-10-10z"/></svg>